<?xml version="1.0" encoding="utf-8"?>
<!-- Svg Vector Icons : http://www.onlinewebfonts.com/icon -->
<!DOCTYPE svg PUBLIC "-//W3C//DTD SVG 1.1//EN" "http://www.w3.org/Graphics/SVG/1.1/DTD/svg11.dtd">
<svg version="1.1" xmlns="http://www.w3.org/2000/svg" xmlns:xlink="http://www.w3.org/1999/xlink" x="0px" y="0px" viewBox="0 0 1000 1000" enable-background="new 0 0 1000 1000" xml:space="preserve">
<metadata> Svg Vector Icons : http://www.onlinewebfonts.com/icon </metadata>
<g><g transform="translate(0.000000,511.000000) scale(0.100000,-0.100000)"><path d="M499,4654.1c-134.3-51.8-280-186-345.3-320.3c-46-94-53.7-132.4-53.7-272.4c0-212.9,49.9-326.1,199.5-466.1c188-170.7,195.7-172.6,972.5-182.2l675.2-7.7l9.6-49.9c86.3-423.9,1158.6-5060.2,1181.6-5115.8c71-159.2,222.5-289.7,404.7-343.4c92.1-26.8,339.5-30.7,2311.4-30.7c2401.6,0,2311.4-3.8,2484,105.5c101.7,63.3,205.2,191.8,247.5,305c19.2,53.7,324.2,909.2,675.2,1900.9L9900,1980.2v163c0,141.9-7.7,178.4-55.6,274.3c-180.3,362.5-638.8,470-961,226.3c-49.9-38.4-117-109.3-145.8-155.4C8699.2,2425.2,7533-797.4,7533-841.5c0-3.8-746.2-7.7-1659.2-7.7H4214.5l-9.6,44.1c-5.8,23-268.5,1175.8-585,2560.8c-456.5,2004.5-585,2539.7-627.2,2616.4c-67.1,124.7-193.7,234-324.2,283.9c-101.7,36.4-145.8,38.4-1087.6,36.4C646.7,4692.5,593,4690.6,499,4654.1z"/><path d="M5212,3629.8v-853.6l-527.5-3.8l-527.5-5.7l953.3-955.3L6065.5,858l959.1,959.1l959.1,959.1h-533.3h-531.3v853.6v853.6h-853.6H5212V3629.8z"/><path d="M3859.6-2575.5c-458.4-94-776.9-483.4-776.9-949.5c0-211,49.9-362.5,180.3-552.4c124.7-180.3,339.5-328,550.5-376c120.8-28.8,354.9-24.9,470,5.8c326.1,86.3,602.3,366.4,688.6,696.3C5144.8-3089.6,4529.1-2439.3,3859.6-2575.5z"/><path d="M7477.3-2575.5c-48-9.6-149.6-49.9-228.3-86.3c-400.9-189.9-623.4-665.6-512.1-1093.4c86.3-328,362.5-606.1,690.5-692.5c113.2-30.7,349.1-34.5,468-5.8c295.4,67.1,571.6,316.5,677.1,608.1c49.9,134.3,65.2,381.7,34.5,527.5c-65.2,314.6-314.6,596.6-625.3,704C7851.4-2567.9,7602-2548.7,7477.3-2575.5z"/></g></g>
</svg>